# xmcd CD database file
# Generated: Thu May 3 10:56:53 2001 by KSCD
# 
# Track frame offsets:
#       150
#       17445
#       35922
#       53612
#       73342
#       86657
#       103677
#       117695
#       135357
#       161207
#       180450
#       195572
#       212640
#       229510
#
# Disc length: 3254 seconds
#
# Revision: 3
# Processed by: cddbd v1.4b41PL1 Copyright (c) Steve Scherf et al.
# Submitted via: Kscd 1.2.7
#
DISCID=c10cb40e
DTITLE=Steinke and Hausler - Yellowstone Winds
DYEAR=1900
DGENRE=
TTITLE0=Get On That Horse and Ride
TTITLE1=Will You Love Me Still
TTITLE2=Yellowstone Winds
TTITLE3=The Gift
TTITLE4=Prairie Moon
TTITLE5=Long Distance Love
TTITLE6=Willie
TTITLE7=Partners for Life
TTITLE8=Crow Fair
TTITLE9=It's Too Late
TTITLE10=Fanny Sperry Steele
TTITLE11=Ol' Cowboy
TTITLE12=Across The Great Divide
TTITLE13=Why You Been Gone So Long
EXTD=http://www.steinke-hausler.com/
EXTT0=
EXTT1=
EXTT2=
EXTT3=
EXTT4=
EXTT5=
EXTT6=
EXTT7=
EXTT8=
EXTT9=
EXTT10=
EXTT11=
EXTT12=
EXTT13=
PLAYORDER=
